<svg xmlns="http://www.w3.org/2000/svg" viewBox="0 0 64 64" fill="none">
  <defs>
    <linearGradient id="bg" x1="0%" y1="0%" x2="100%" y2="100%">
      <stop offset="0%" style="stop-color:#1A1A1A"/>
      <stop offset="100%" style="stop-color:#0D0D0D"/>
    </linearGradient>
    <linearGradient id="gold" x1="0%" y1="0%" x2="100%" y2="100%">
      <stop offset="0%" style="stop-color:#E2C97E"/>
      <stop offset="50%" style="stop-color:#C9A84C"/>
      <stop offset="100%" style="stop-color:#A68A3E"/>
    </linearGradient>
  </defs>

  <!-- Dark rounded background -->
  <rect width="64" height="64" rx="14" fill="url(#bg)"/>

  <!-- Gold spade icon centered -->
  <path d="M32 10 C32 10 14 30 14 42 C14 50 20 56 28 56 C30.5 56 32 54.5 32 54.5 L32 58 L26 58 L26 60 L38 60 L38 58 L32 58 L32 54.5 C32 54.5 33.5 56 36 56 C44 56 50 50 50 42 C50 30 32 10 32 10Z"
        fill="url(#gold)" />
</svg>
