<svg xmlns="http://www.w3.org/2000/svg" viewBox="0 0 320 80" fill="none">
  <defs>
    <linearGradient id="goldGrad" x1="0%" y1="0%" x2="100%" y2="100%">
      <stop offset="0%" style="stop-color:#E2C97E"/>
      <stop offset="50%" style="stop-color:#C9A84C"/>
      <stop offset="100%" style="stop-color:#A68A3E"/>
    </linearGradient>
    <linearGradient id="goldGradLight" x1="0%" y1="0%" x2="100%" y2="0%">
      <stop offset="0%" style="stop-color:#C9A84C"/>
      <stop offset="100%" style="stop-color:#E2C97E"/>
    </linearGradient>
  </defs>

  <!-- Ace spade icon -->
  <g transform="translate(10, 8)">
    <path d="M30 8 C30 8 12 28 12 40 C12 48 18 54 26 54 C28 54 30 53 30 53 L30 62 L24 62 L24 64 L36 64 L36 62 L30 62 L30 53 C30 53 32 54 34 54 C42 54 48 48 48 40 C48 28 30 8 30 8Z"
          fill="url(#goldGrad)" />
  </g>

  <!-- ACE text -->
  <text x="72" y="52" font-family="Montserrat, Arial, sans-serif" font-weight="800" font-size="42" fill="url(#goldGrad)" letter-spacing="4">ACE</text>

  <!-- DETAILING text -->
  <text x="185" y="52" font-family="Montserrat, Arial, sans-serif" font-weight="300" font-size="42" fill="#FFFFFF" letter-spacing="2">DETAILING</text>

  <!-- Gold underline accent -->
  <rect x="72" y="60" width="240" height="2" rx="1" fill="url(#goldGradLight)" opacity="0.6"/>
</svg>
